<?xml version="1.0" encoding="utf-8"?>
<!-- Generator: Adobe Illustrator 24.2.0, SVG Export Plug-In . SVG Version: 6.00 Build 0)  -->
<svg version="1.1" id="Calque_1" xmlns="http://www.w3.org/2000/svg" xmlns:xlink="http://www.w3.org/1999/xlink" x="0px" y="0px"
	 viewBox="0 0 282 237" style="enable-background:new 0 0 282 237;" xml:space="preserve">
<style type="text/css">
	.st0{display:none;fill:#161616;stroke:#C8A157;stroke-width:5.3426;stroke-miterlimit:10;}
	.st1{fill:#161616;stroke:#C8A157;stroke-width:3.5316;stroke-miterlimit:10;}
	.st2{fill:#161616;stroke:#CCCCCC;stroke-width:2.6724;stroke-miterlimit:10;}
	.st3{fill:#161616;}
	.st4{fill:#C8A157;}
	.st5{fill:#CCCCCC;}
</style>
<g>
	<polyline class="st0" points="196.5,43.1 1862.5,43.1 1862.5,177.6 202.2,177.6 162,130.5 202.2,43.1 	"/>
	<g>
		<g>
			<g>
				<path class="st1" d="M188.7,207.7c-0.7-2-1-5.9-1.2-8c-0.8-8.4,4-15.6,4.8-23.8c0-0.5,0.1-1,0.1-1.5c3.7,1.1,18.4,2.6,22.4,2.8
					C210.8,187.6,196.7,201.3,188.7,207.7z"/>
			</g>
			<g>
				<path class="st1" d="M108.4,223.3c-2.7-5.4-1.6-13,3.7-16.4c4.9-3.1,11.8-2.7,16-7.1c4.8-5.2,2.9-12.2,2.9-18.5
					c0-6.9,2-14.1,6.5-19.5c5.4-6.4,13.9-8.2,20.2-13.4c0.4-0.3,0.7-0.6,1.1-0.9c6.7,12.1,17.6,21.4,30.8,26
					c-5.4,7.8-14.9,12.7-24.9,11.9c-2.6-0.2-5.2-0.8-7.9-0.7c-6.1,0.2-9.4,5.3-10.5,10.8c-1.2,6-1.7,11.1-6.3,15.8s-10.6,6.4-17,6.5
					C117.8,217.9,110.1,216.9,108.4,223.3z"/>
			</g>
			<g>
				<path class="st1" d="M126.3,129.5c-4.5-4.1-10.4-2.9-15.1,0.2c-5.1,3.4-9.1,6.7-15.6,6.8s-12-3-16.6-7.4
					c-3.7-3.6-8.4-9.7-14.2-6.4c1.9-5.8,8.1-10.4,14.2-9c5.6,1.3,10.3,6.5,16.3,6.3c7.1-0.2,10.7-6.6,15.1-11
					c4.9-4.9,11.4-8.6,18.4-9.2c8.4-0.8,15.6,4,23.8,4.8c0.5,0,0.9,0.1,1.4,0.1c-1.5,5-2.3,10.3-2.3,15.8c0,8.7,2,17,5.6,24.4
					c-9.3,1.7-19.5-1.6-26-9.2C129.7,133.6,128.3,131.3,126.3,129.5z"/>
			</g>
			<g>
				<path class="st1" d="M155,101.8c-7.8-5.4-12.7-14.9-11.8-24.9c0.2-2.6,0.8-5.2,0.7-7.9c-0.2-6.1-5.3-9.4-10.8-10.5
					c-6-1.3-11.1-1.7-15.8-6.3c-4.7-4.6-6.4-10.6-6.5-17c-0.1-5.1,0.9-12.8-5.4-14.6c5.4-2.7,13-1.6,16.4,3.7
					c3.1,4.9,2.7,11.9,7.1,16c5.2,4.8,12.2,3,18.5,2.9c6.9,0,14.1,2,19.5,6.5c6.4,5.4,8.2,13.9,13.4,20.2c0.3,0.4,0.7,0.8,1,1.1
					C169,77.7,159.6,88.6,155,101.8z"/>
			</g>
			<g>
				<path class="st1" d="M183.7,69.7c-1.7-9.3,1.5-19.6,9.2-26.1c1-0.8,2-1.6,3-2.4c3.4,2.4,13,13.5,17.9,23.1l-7.9-0.1
					c-3.1,0.1-6.1,0.4-9,1c-1,0.2-2,0.4-3,0.7c-0.4,0.1-0.9,0.2-1.3,0.4c-0.9,0.2-1.7,0.5-2.6,0.8c0,0,0,0-0.1,0
					C187.9,67.9,185.8,68.8,183.7,69.7z"/>
			</g>
		</g>
		<path class="st2" d="M206.3,176.8c-58.5-43.5,25-114.9,58.9-50.3c5.6-48-48.9-82.3-89.1-54.8c-46.1,30.7-24.6,103.1,30.3,105.2
			L206.3,176.8z"/>
		<g>
			<path class="st3" d="M49.9,178.5l-15.4,3.2l15.4,3.2l-5,7.6l7.6-5l3.2,15.4l3.2-15.4l7.6,5c0,0-2.6-3.9-5-7.6l15.4-3.2
				c0,0-9.3-1.9-15.4-3.2l5-7.6c0,0-3.9,2.6-7.6,5l-3.2-15.4c0,0-1.9,9.3-3.2,15.4l-7.6-5L49.9,178.5z"/>
			<path class="st4" d="M55.8,157.4l3.7,17.4l9.3-6.1l-6.1,9.3l17.4,3.7l-17.4,3.7l6.1,9.3l-9.3-6.1L55.8,206l-3.7-17.4l-9.3,6.1
				l6.1-9.3l-17.4-3.7l17.4-3.7l-6.1-9.3l9.3,6.1L55.8,157.4z M58.6,176.8l-2.8-13.5L53,176.8l-6-3.9l3.9,6l-13.5,2.8l13.5,2.8
				l-3.9,6l6-3.9l2.8,13.5l2.8-13.5l6,3.9l-3.9-6l13.5-2.8l-13.5-2.8l3.9-6L58.6,176.8z"/>
		</g>
		<g>
			<path class="st3" d="M27,69.4l-7.9,1.7l7.9,1.7l-2.6,3.9l3.9-2.6L30,82l1.7-7.9l3.9,2.6c0,0-1.3-2-2.6-3.9l7.9-1.7
				c0,0-4.8-1-7.9-1.7l2.6-3.9c0,0-2,1.3-3.9,2.6L30,60.2c0,0-1,4.8-1.7,7.9l-3.9-2.6L27,69.4z"/>
			<path class="st4" d="M30.1,58.6l1.9,8.9l4.8-3.1l-3.1,4.8l8.9,1.9l-9,1.9l3.1,4.8l-4.8-3.1L30,83.6l-1.9-8.9l-4.8,3.1l3.1-4.8
				l-8.9-1.9l8.9-1.9l-3.1-4.8l4.8,3.1L30.1,58.6z M31.5,68.6L30,61.7l-1.5,6.9l-3.1-2l2,3.1l-6.9,1.5l6.9,1.5l-2,3.1l3.1-2l1.5,6.9
				l1.5-6.9l3.1,2l-2-3.1l6.9-1.5l-6.9-1.5l2-3.1L31.5,68.6z"/>
		</g>
		<g>
			<path class="st3" d="M95.2,190.2l-7.9,1.7l7.9,1.7l-2.6,3.9l3.9-2.6l1.7,7.9l1.7-7.9l3.9,2.6c0,0-1.3-2-2.6-3.9l7.9-1.7
				c0,0-4.8-1-7.9-1.7l2.6-3.9c0,0-2,1.3-3.9,2.6l-1.7-7.9c0,0-1,4.8-1.7,7.9l-3.9-2.6L95.2,190.2z"/>
			<path class="st4" d="M98.2,179.4l1.9,8.9l4.8-3.1l-3.1,4.8l8.9,1.9l-8.9,1.9l3.1,4.8l-4.8-3.1l-1.9,8.9l-1.9-8.9l-4.8,3.1
				l3.1-4.8l-8.9-1.9l8.9-1.9l-3.1-4.8l4.8,3.1L98.2,179.4z M99.6,189.4l-1.5-6.9l-1.5,6.9l-3.1-2l2,3.1l-6.9,1.5l6.9,1.5l-2,3.1
				l3.1-2l1.5,6.9l1.5-6.9l3.1,2l-2-3.1l6.9-1.5l-6.9-1.5l2-3.1L99.6,189.4z"/>
		</g>
		<g>
			<circle class="st5" cx="134.5" cy="18.2" r="4.5"/>
			<circle class="st5" cx="73.9" cy="37.1" r="3.9"/>
			<circle class="st5" cx="61.5" cy="82.4" r="2.6"/>
			<circle class="st5" cx="85.8" cy="64" r="1.3"/>
			<circle class="st5" cx="122.3" cy="157.6" r="2.6"/>
			<circle class="st5" cx="30.4" cy="142.5" r="2.9"/>
			<circle class="st5" cx="17.4" cy="92.8" r="0.8"/>
			<circle class="st5" cx="169.2" cy="206" r="2.5"/>
			<circle class="st5" cx="37.4" cy="54" r="2"/>
			<circle class="st5" cx="39.7" cy="137.9" r="0.8"/>
			<circle class="st5" cx="41.2" cy="112.7" r="0.8"/>
			<circle class="st5" cx="85" cy="156.7" r="0.8"/>
		</g>
	</g>
</g>
</svg>
