<?xml version="1.0" encoding="utf-8"?>
<!-- Generator: Adobe Illustrator 24.2.0, SVG Export Plug-In . SVG Version: 6.00 Build 0)  -->
<svg version="1.1" id="Calque_1" xmlns="http://www.w3.org/2000/svg" xmlns:xlink="http://www.w3.org/1999/xlink" x="0px" y="0px"
	 viewBox="0 0 250 250" style="enable-background:new 0 0 250 250;" xml:space="preserve">
<style type="text/css">
	.st0{display:none;fill:#161616;stroke:#C8A157;stroke-width:5.3426;stroke-miterlimit:10;}
	.st1{display:none;}
	.st2{display:inline;}
	.st3{fill:#161616;stroke:#C8A157;stroke-width:4.426;stroke-miterlimit:10;}
	.st4{fill:#161616;stroke:#CCCCCC;stroke-width:4.6284;stroke-miterlimit:10;}
	.st5{display:inline;fill:#161616;}
	.st6{display:inline;fill:#C8A157;}
	.st7{display:inline;fill:#CCCCCC;}
</style>
<g>
	<polyline class="st0" points="180.5,49.6 1846.5,49.6 1846.5,184.1 186.2,184.1 146,137 186.2,49.6 	"/>
	<g>
		<g class="st1">
			<g class="st2">
				<path class="st3" d="M246.2,157.3c-2.4-1.2-6.1-4.3-8.2-6c-8.2-6.7-10.3-17.4-16.8-25.3c-0.4-0.4-0.8-1-1.2-1.4
					c4.3-2.3,18.6-14,22.3-17.4C247.9,119.9,247.6,144.5,246.2,157.3z"/>
			</g>
			<g class="st2">
				<path class="st3" d="M188.8,242.2c-7.2-2.4-12.9-10.1-11.3-17.8c1.6-7.1,8.1-12.8,7.9-20.5c-0.4-8.9-8.2-13.4-13.8-19
					c-6.1-6.1-10.7-14.3-11.5-23c-0.9-10.5,5.1-19.6,6-29.8c0.1-0.6,0.1-1.2,0.2-1.8c16.7,4.8,34.6,3.4,50.3-4.3
					c2.1,11.7-1.9,24.5-11.5,32.6c-2.5,2.1-5.3,3.9-7.6,6.4c-5.2,5.6-3.6,13,0.3,18.9c4.3,6.4,8.3,11.3,8.4,19.6
					c0.1,8.2-3.7,15.1-9.3,20.8C192.4,229.1,184.7,235.1,188.8,242.2z"/>
			</g>
			<g class="st2">
				<path class="st3" d="M121.6,143.3c-7.6,0.4-11.8,6.6-13.2,13.6c-1.5,7.5-2.1,14-7.8,19.9c-5.7,5.8-13.3,8-21.3,8.2
					c-6.5,0.1-16-1.2-18.3,6.9c-3.5-6.8-2-16.4,4.6-20.6c6.1-3.8,14.9-3.4,20-8.9c6.1-6.5,3.6-15.3,3.6-23.1
					c0-8.7,2.5-17.7,8.2-24.5c6.7-8.2,17.4-10.3,25.3-16.8c0.4-0.4,0.9-0.7,1.3-1.2c3.1,5.8,7.1,11.2,12,16
					c7.7,7.7,16.8,13.3,26.6,16.7c-6.7,9.7-18.7,15.9-31.2,14.9C128.2,143.9,124.9,143.1,121.6,143.3z"/>
			</g>
			<g class="st2">
				<path class="st3" d="M122.5,93.3c-11.7,2.1-24.5-1.9-32.5-11.6c-2.1-2.5-3.9-5.3-6.4-7.6c-5.6-5.2-13-3.6-18.9,0.3
					c-6.5,4.2-11.3,8.3-19.6,8.4C36.9,82.8,30,79,24.3,73.4C19.7,69,13.7,61.3,6.5,65.3C8.9,58.1,16.6,52.3,24.4,54
					c7.1,1.6,12.9,8.2,20.5,7.9c8.9-0.4,13.5-8.2,19-13.8c6.1-6.1,14.3-10.7,23-11.5c10.5-0.9,19.6,5.1,29.8,6
					c0.6,0.1,1.3,0.1,1.9,0.1C113.5,59.5,114.8,77.5,122.5,93.3z"/>
			</g>
			<g class="st2">
				<path class="st3" d="M119.4,39.4c-9.7-6.7-16-18.7-15-31.3c0.2-1.6,0.4-3.2,0.5-4.8c5.1-0.9,23.5,0.4,36.3,4.6l-7.1,6.9
					c-2.7,2.8-5.1,5.8-7.1,8.9c-0.7,1.1-1.4,2.1-2,3.3c-0.3,0.4-0.6,1-0.8,1.5c-0.6,1-1.1,1.9-1.6,3c0,0,0,0-0.1,0.1
					C121.6,34.1,120.5,36.7,119.4,39.4z"/>
			</g>
		</g>
		<path class="st4" d="M247,100.4C178.2,206.2,45.7,69.7,153.7,4.1c-83.6-4.5-137,93.4-85.1,160c58.1,76.4,180.9,31.3,178.6-63.8
			L247,100.4z"/>
		<g class="st1">
			<path class="st5" d="M33.9,185l-15.4,3.2l15.4,3.2l-5,7.6l7.6-5l3.2,15.4l3.2-15.4l7.6,5c0,0-2.6-3.9-5-7.6l15.4-3.2
				c0,0-9.3-1.9-15.4-3.2l5-7.6c0,0-3.9,2.6-7.6,5L39.7,167c0,0-1.9,9.3-3.2,15.4l-7.6-5L33.9,185z"/>
			<path class="st6" d="M39.8,163.9l3.7,17.4l9.3-6.1l-6.1,9.3l17.4,3.7l-17.4,3.7l6.1,9.3l-9.3-6.1l-3.7,17.4l-3.7-17.4l-9.3,6.1
				l6.1-9.3l-17.4-3.7l17.4-3.7l-6.1-9.3l9.3,6.1L39.8,163.9z M42.6,183.3l-2.8-13.5L37,183.3l-6-3.9l3.9,6l-13.5,2.8l13.5,2.8
				l-3.9,6l6-3.9l2.8,13.5l2.8-13.5l6,3.9l-3.9-6l13.5-2.8l-13.5-2.8l3.9-6L42.6,183.3z"/>
		</g>
		<g class="st1">
			<path class="st5" d="M11,75.9l-7.9,1.7l7.9,1.7l-2.6,3.9l3.9-2.6l1.7,7.9l1.7-7.9l3.9,2.6c0,0-1.3-2-2.6-3.9l7.9-1.7
				c0,0-4.8-1-7.9-1.7l2.6-3.9c0,0-2,1.3-3.9,2.6L14,66.7c0,0-1,4.8-1.7,7.9L8.4,72L11,75.9z"/>
			<path class="st6" d="M14.1,65.1L16,74l4.8-3.1l-3.1,4.8l8.9,1.9l-9,1.9l3.1,4.8l-4.8-3.1L14,90.1l-1.9-8.9l-4.8,3.1l3.1-4.8
				l-8.9-1.9l8.9-1.9l-3.1-4.8l4.8,3.1L14.1,65.1z M15.5,75.1L14,68.2l-1.5,6.9l-3.1-2l2,3.1l-6.9,1.5l6.9,1.5l-2,3.1l3.1-2l1.5,6.9
				l1.5-6.9l3.1,2l-2-3.1l6.9-1.5l-6.9-1.5l2-3.1L15.5,75.1z"/>
		</g>
		<g class="st1">
			<path class="st5" d="M79.2,196.7l-7.9,1.7l7.9,1.7l-2.6,3.9l3.9-2.6l1.7,7.9l1.7-7.9l3.9,2.6c0,0-1.3-2-2.6-3.9l7.9-1.7
				c0,0-4.8-1-7.9-1.7l2.6-3.9c0,0-2,1.3-3.9,2.6l-1.7-7.9c0,0-1,4.8-1.7,7.9l-3.9-2.6L79.2,196.7z"/>
			<path class="st6" d="M82.2,185.9l1.9,8.9l4.8-3.1l-3.1,4.8l8.9,1.9l-8.9,1.9l3.1,4.8l-4.8-3.1l-1.9,8.9l-1.9-8.9l-4.8,3.1
				l3.1-4.8l-8.9-1.9l8.9-1.9l-3.1-4.8l4.8,3.1L82.2,185.9z M83.6,195.9l-1.5-6.9l-1.5,6.9l-3.1-2l2,3.1l-6.9,1.5l6.9,1.5l-2,3.1
				l3.1-2l1.5,6.9l1.5-6.9l3.1,2l-2-3.1l6.9-1.5l-6.9-1.5l2-3.1L83.6,195.9z"/>
		</g>
		<g class="st1">
			<circle class="st7" cx="118.5" cy="24.7" r="4.5"/>
			<circle class="st7" cx="57.9" cy="43.6" r="3.9"/>
			<circle class="st7" cx="45.5" cy="88.9" r="2.6"/>
			<circle class="st7" cx="69.8" cy="70.5" r="1.3"/>
			<circle class="st7" cx="106.3" cy="164.1" r="2.6"/>
			<circle class="st7" cx="14.4" cy="149" r="2.9"/>
			<circle class="st7" cx="1.4" cy="99.3" r="0.8"/>
			<circle class="st7" cx="153.2" cy="212.5" r="2.5"/>
			<circle class="st7" cx="21.4" cy="60.5" r="2"/>
			<circle class="st7" cx="23.7" cy="144.4" r="0.8"/>
			<circle class="st7" cx="25.2" cy="119.2" r="0.8"/>
			<circle class="st7" cx="69" cy="163.2" r="0.8"/>
		</g>
	</g>
</g>
</svg>
